<mxfile host="Electron" agent="Mozilla/5.0 (Windows NT 10.0; Win64; x64) AppleWebKit/537.36 (KHTML, like Gecko) draw.io/24.7.5 Chrome/126.0.6478.183 Electron/31.3.0 Safari/537.36" version="24.7.5">
  <diagram id="R2lEEEUBdFMjLlhIrx00" name="Page-1">
    <mxGraphModel dx="1050" dy="621" grid="1" gridSize="10" guides="1" tooltips="1" connect="1" arrows="1" fold="1" page="1" pageScale="1" pageWidth="1920" pageHeight="1080" math="0" shadow="0" extFonts="Permanent Marker^https://fonts.googleapis.com/css?family=Permanent+Marker">
      <root>
        <mxCell id="0" />
        <mxCell id="1" parent="0" />
        <mxCell id="BnSgCZiBQmyR9oTaGll6-1" value="&lt;p style=&quot;margin:0px;margin-top:4px;text-align:center;&quot;&gt;&lt;b&gt;Item&lt;/b&gt;&lt;/p&gt;&lt;hr size=&quot;1&quot; style=&quot;border-style:solid;&quot;&gt;&lt;p style=&quot;margin:0px;margin-left:4px;&quot;&gt;- itemID: int (Auto Inc.)&lt;/p&gt;&lt;p style=&quot;margin:0px;margin-left:4px;&quot;&gt;- name: string&lt;br&gt;- author: string&lt;/p&gt;&lt;p style=&quot;margin:0px;margin-left:4px;&quot;&gt;- title: string&lt;/p&gt;&lt;p style=&quot;margin:0px;margin-left:4px;&quot;&gt;- language: string&lt;/p&gt;&lt;p style=&quot;margin:0px;margin-left:4px;&quot;&gt;- YoP: string&lt;/p&gt;&lt;p style=&quot;margin:0px;margin-left:4px;&quot;&gt;- category: string&lt;/p&gt;&lt;hr size=&quot;1&quot; style=&quot;border-style:solid;&quot;&gt;&lt;p style=&quot;margin:0px;margin-left:4px;&quot;&gt;- __init__(): constructor&lt;br&gt;+ @property =&amp;gt; Item: getter&lt;/p&gt;&lt;p style=&quot;margin:0px;margin-left:4px;&quot;&gt;+ @item.setter =&amp;gt; Item: setter&lt;/p&gt;" style="verticalAlign=top;align=left;overflow=fill;html=1;whiteSpace=wrap;" parent="1" vertex="1">
          <mxGeometry x="350" y="590" width="190" height="200" as="geometry" />
        </mxCell>
        <mxCell id="BnSgCZiBQmyR9oTaGll6-6" style="edgeStyle=orthogonalEdgeStyle;rounded=0;orthogonalLoop=1;jettySize=auto;html=1;exitX=0.5;exitY=0;exitDx=0;exitDy=0;entryX=0.137;entryY=1.022;entryDx=0;entryDy=0;entryPerimeter=0;endArrow=block;endFill=0;" parent="1" source="BnSgCZiBQmyR9oTaGll6-2" target="BnSgCZiBQmyR9oTaGll6-1" edge="1">
          <mxGeometry relative="1" as="geometry" />
        </mxCell>
        <mxCell id="BnSgCZiBQmyR9oTaGll6-2" value="&lt;p style=&quot;margin:0px;margin-top:4px;text-align:center;&quot;&gt;&lt;b&gt;Book&lt;/b&gt;&lt;/p&gt;&lt;hr size=&quot;1&quot; style=&quot;border-style:solid;&quot;&gt;&lt;p style=&quot;margin:0px;margin-left:4px;&quot;&gt;- quantity: int&lt;br&gt;&lt;/p&gt;&lt;p style=&quot;margin:0px;margin-left:4px;&quot;&gt;- chapters: dictionary&lt;/p&gt;&lt;hr size=&quot;1&quot; style=&quot;border-style:solid;&quot;&gt;&lt;p style=&quot;margin:0px;margin-left:4px;&quot;&gt;- __init__(): constructor&lt;br&gt;+ @property =&amp;gt; Book: getter&lt;/p&gt;&lt;p style=&quot;margin:0px;margin-left:4px;&quot;&gt;+ @Book.setter =&amp;gt; Book: setter&lt;/p&gt;&lt;p style=&quot;margin:0px;margin-left:4px;&quot;&gt;+ __str__(): string&lt;/p&gt;" style="verticalAlign=top;align=left;overflow=fill;html=1;whiteSpace=wrap;" parent="1" vertex="1">
          <mxGeometry x="60" y="890" width="190" height="150" as="geometry" />
        </mxCell>
        <mxCell id="BnSgCZiBQmyR9oTaGll6-3" value="&lt;p style=&quot;margin:0px;margin-top:4px;text-align:center;&quot;&gt;&lt;b&gt;Periodical&lt;/b&gt;&lt;/p&gt;&lt;hr size=&quot;1&quot; style=&quot;border-style:solid;&quot;&gt;&lt;p style=&quot;margin:0px;margin-left:4px;&quot;&gt;- quantity: int&lt;br&gt;&lt;/p&gt;&lt;hr size=&quot;1&quot; style=&quot;border-style:solid;&quot;&gt;&lt;p style=&quot;margin:0px;margin-left:4px;&quot;&gt;- __init__(): constructor&lt;br&gt;+ @property =&amp;gt; Periodical: getter&lt;/p&gt;&lt;p style=&quot;margin:0px;margin-left:4px;&quot;&gt;+ @Periodical.setter =&amp;gt; Periodical: setter&lt;/p&gt;&lt;p style=&quot;margin:0px;margin-left:4px;&quot;&gt;+ __str__(): string&lt;br&gt;&lt;/p&gt;" style="verticalAlign=top;align=left;overflow=fill;html=1;whiteSpace=wrap;" parent="1" vertex="1">
          <mxGeometry x="270" y="910" width="190" height="150" as="geometry" />
        </mxCell>
        <mxCell id="BnSgCZiBQmyR9oTaGll6-4" value="&lt;p style=&quot;margin:0px;margin-top:4px;text-align:center;&quot;&gt;&lt;b&gt;Magazine&lt;/b&gt;&lt;/p&gt;&lt;hr size=&quot;1&quot; style=&quot;border-style:solid;&quot;&gt;&lt;p style=&quot;margin:0px;margin-left:4px;&quot;&gt;- quantity: int&lt;br&gt;&lt;/p&gt;&lt;hr size=&quot;1&quot; style=&quot;border-style:solid;&quot;&gt;&lt;p style=&quot;margin:0px;margin-left:4px;&quot;&gt;- __init__(): constructor&lt;br&gt;+ @property =&amp;gt; Magazine: getter&lt;/p&gt;&lt;p style=&quot;margin:0px;margin-left:4px;&quot;&gt;+ @Magazine.setter =&amp;gt; Magazine: setter&lt;/p&gt;&lt;p style=&quot;margin:0px;margin-left:4px;&quot;&gt;+ __str__(): string&lt;br&gt;&lt;/p&gt;" style="verticalAlign=top;align=left;overflow=fill;html=1;whiteSpace=wrap;" parent="1" vertex="1">
          <mxGeometry x="480" y="910" width="190" height="150" as="geometry" />
        </mxCell>
        <mxCell id="BnSgCZiBQmyR9oTaGll6-5" value="&lt;p style=&quot;margin:0px;margin-top:4px;text-align:center;&quot;&gt;&lt;b&gt;Audio Book&lt;/b&gt;&lt;/p&gt;&lt;hr size=&quot;1&quot; style=&quot;border-style:solid;&quot;&gt;&lt;p style=&quot;margin:0px;margin-left:4px;&quot;&gt;- duration: int&lt;br&gt;&lt;/p&gt;&lt;p style=&quot;margin:0px;margin-left:4px;&quot;&gt;- chapters: dictionary&lt;br&gt;&lt;/p&gt;&lt;hr size=&quot;1&quot; style=&quot;border-style:solid;&quot;&gt;&lt;p style=&quot;margin:0px;margin-left:4px;&quot;&gt;- __init__(): constructor&lt;br&gt;+ @property =&amp;gt; AudioBook: getter&lt;/p&gt;&lt;p style=&quot;margin:0px;margin-left:4px;&quot;&gt;+ @AudioBook.setter =&amp;gt; AudioBook: setter&lt;/p&gt;&lt;p style=&quot;margin:0px;margin-left:4px;&quot;&gt;+ __str__(): string&lt;br&gt;&lt;/p&gt;" style="verticalAlign=top;align=left;overflow=fill;html=1;whiteSpace=wrap;" parent="1" vertex="1">
          <mxGeometry x="690" y="890" width="190" height="150" as="geometry" />
        </mxCell>
        <mxCell id="BnSgCZiBQmyR9oTaGll6-8" style="edgeStyle=orthogonalEdgeStyle;rounded=0;orthogonalLoop=1;jettySize=auto;html=1;exitX=0.5;exitY=0;exitDx=0;exitDy=0;entryX=0.389;entryY=1.022;entryDx=0;entryDy=0;entryPerimeter=0;endArrow=block;endFill=0;" parent="1" source="BnSgCZiBQmyR9oTaGll6-3" target="BnSgCZiBQmyR9oTaGll6-1" edge="1">
          <mxGeometry relative="1" as="geometry" />
        </mxCell>
        <mxCell id="BnSgCZiBQmyR9oTaGll6-9" style="edgeStyle=orthogonalEdgeStyle;rounded=0;orthogonalLoop=1;jettySize=auto;html=1;exitX=0.5;exitY=0;exitDx=0;exitDy=0;entryX=0.605;entryY=1.011;entryDx=0;entryDy=0;entryPerimeter=0;endArrow=block;endFill=0;" parent="1" source="BnSgCZiBQmyR9oTaGll6-4" target="BnSgCZiBQmyR9oTaGll6-1" edge="1">
          <mxGeometry relative="1" as="geometry" />
        </mxCell>
        <mxCell id="BnSgCZiBQmyR9oTaGll6-10" style="edgeStyle=orthogonalEdgeStyle;rounded=0;orthogonalLoop=1;jettySize=auto;html=1;exitX=0.5;exitY=0;exitDx=0;exitDy=0;entryX=0.816;entryY=1.017;entryDx=0;entryDy=0;entryPerimeter=0;endArrow=block;endFill=0;" parent="1" source="BnSgCZiBQmyR9oTaGll6-5" target="BnSgCZiBQmyR9oTaGll6-1" edge="1">
          <mxGeometry relative="1" as="geometry" />
        </mxCell>
        <mxCell id="BnSgCZiBQmyR9oTaGll6-12" value="&lt;p style=&quot;margin:0px;margin-top:4px;text-align:center;&quot;&gt;&lt;b&gt;Storage&lt;/b&gt;&lt;/p&gt;&lt;hr size=&quot;1&quot; style=&quot;border-style:solid;&quot;&gt;&lt;p style=&quot;margin:0px;margin-left:4px;&quot;&gt;- store: BST&amp;lt;Item&amp;gt;&lt;br&gt;&lt;/p&gt;&lt;p style=&quot;margin:0px;margin-left:4px;&quot;&gt;- totalItems: int&lt;/p&gt;&lt;hr size=&quot;1&quot; style=&quot;border-style:solid;&quot;&gt;&lt;p style=&quot;margin:0px;margin-left:4px;&quot;&gt;- __init__(): constructor&lt;br&gt;+ @property =&amp;gt; Storage: getter&lt;/p&gt;&lt;p style=&quot;margin:0px;margin-left:4px;&quot;&gt;+ @Storage.setter =&amp;gt; Storage: setter&lt;/p&gt;&lt;p style=&quot;margin:0px;margin-left:4px;&quot;&gt;+ __str__(): string&lt;/p&gt;" style="verticalAlign=top;align=left;overflow=fill;html=1;whiteSpace=wrap;" parent="1" vertex="1">
          <mxGeometry x="350" y="330" width="190" height="180" as="geometry" />
        </mxCell>
        <mxCell id="BnSgCZiBQmyR9oTaGll6-14" value="" style="endArrow=diamondThin;endFill=1;endSize=24;html=1;rounded=0;entryX=0.5;entryY=1;entryDx=0;entryDy=0;exitX=0.5;exitY=0;exitDx=0;exitDy=0;" parent="1" source="BnSgCZiBQmyR9oTaGll6-1" target="BnSgCZiBQmyR9oTaGll6-12" edge="1">
          <mxGeometry width="160" relative="1" as="geometry">
            <mxPoint x="450" y="680" as="sourcePoint" />
            <mxPoint x="300" y="610" as="targetPoint" />
            <Array as="points" />
          </mxGeometry>
        </mxCell>
        <mxCell id="BnSgCZiBQmyR9oTaGll6-15" value="&lt;p style=&quot;margin:0px;margin-top:4px;text-align:center;&quot;&gt;&lt;b&gt;User&lt;/b&gt;&lt;/p&gt;&lt;hr size=&quot;1&quot; style=&quot;border-style:solid;&quot;&gt;&lt;p style=&quot;margin:0px;margin-left:4px;&quot;&gt;- firstName: string&lt;br&gt;- lastName: string&lt;/p&gt;&lt;p style=&quot;margin:0px;margin-left:4px;&quot;&gt;- username: string&lt;/p&gt;&lt;p style=&quot;margin:0px;margin-left:4px;&quot;&gt;- password: string&lt;/p&gt;&lt;hr size=&quot;1&quot; style=&quot;border-style:solid;&quot;&gt;&lt;p style=&quot;margin:0px;margin-left:4px;&quot;&gt;- __init__(): constructor&lt;br&gt;+ @property =&amp;gt;&amp;nbsp;&lt;b style=&quot;text-align: center;&quot;&gt;User&lt;/b&gt;: getter&lt;/p&gt;&lt;p style=&quot;margin:0px;margin-left:4px;&quot;&gt;+ @&lt;b style=&quot;text-align: center;&quot;&gt;User&lt;/b&gt;.setter =&amp;gt;&amp;nbsp;&lt;b style=&quot;text-align: center;&quot;&gt;User&lt;/b&gt;: setter&lt;/p&gt;" style="verticalAlign=top;align=left;overflow=fill;html=1;whiteSpace=wrap;direction=east;" parent="1" vertex="1">
          <mxGeometry x="690" y="320" width="190" height="180" as="geometry" />
        </mxCell>
        <mxCell id="BnSgCZiBQmyR9oTaGll6-16" value="&lt;p style=&quot;margin:0px;margin-top:4px;text-align:center;&quot;&gt;&lt;b&gt;Admin&lt;/b&gt;&lt;/p&gt;&lt;hr size=&quot;1&quot; style=&quot;border-style:solid;&quot;&gt;&lt;p style=&quot;margin:0px;margin-left:4px;&quot;&gt;- firstName: string&lt;br&gt;- lastName: string&lt;/p&gt;&lt;p style=&quot;margin:0px;margin-left:4px;&quot;&gt;- username: string&lt;/p&gt;&lt;p style=&quot;margin:0px;margin-left:4px;&quot;&gt;- password: string&lt;/p&gt;&lt;hr size=&quot;1&quot; style=&quot;border-style:solid;&quot;&gt;&lt;p style=&quot;margin:0px;margin-left:4px;&quot;&gt;- __init__(): constructor&lt;br&gt;+ @property =&amp;gt;&amp;nbsp;&lt;b style=&quot;text-align: center;&quot;&gt;User&lt;/b&gt;: getter&lt;/p&gt;&lt;p style=&quot;margin:0px;margin-left:4px;&quot;&gt;+ @&lt;b style=&quot;text-align: center;&quot;&gt;User&lt;/b&gt;.setter =&amp;gt;&amp;nbsp;&lt;b style=&quot;text-align: center;&quot;&gt;User&lt;/b&gt;: setter&lt;/p&gt;" style="verticalAlign=top;align=left;overflow=fill;html=1;whiteSpace=wrap;direction=east;" parent="1" vertex="1">
          <mxGeometry x="590" y="590" width="190" height="180" as="geometry" />
        </mxCell>
        <mxCell id="BnSgCZiBQmyR9oTaGll6-17" value="&lt;p style=&quot;margin:0px;margin-top:4px;text-align:center;&quot;&gt;&lt;b&gt;Borrower&lt;/b&gt;&lt;/p&gt;&lt;hr size=&quot;1&quot; style=&quot;border-style:solid;&quot;&gt;&lt;p style=&quot;margin:0px;margin-left:4px;&quot;&gt;- borrowerAN: string&lt;/p&gt;&lt;p style=&quot;margin:0px;margin-left:4px;&quot;&gt;- status: bool&lt;/p&gt;&lt;p style=&quot;margin:0px;margin-left:4px;&quot;&gt;- fine: int&lt;/p&gt;&lt;hr size=&quot;1&quot; style=&quot;border-style:solid;&quot;&gt;&lt;p style=&quot;margin:0px;margin-left:4px;&quot;&gt;- __init__(): constructor&lt;br&gt;+ @property =&amp;gt;&amp;nbsp;&lt;b style=&quot;text-align: center;&quot;&gt;Borrower&lt;/b&gt;: getter&lt;/p&gt;&lt;p style=&quot;margin:0px;margin-left:4px;&quot;&gt;+ @&lt;b style=&quot;text-align: center;&quot;&gt;Borrower&lt;/b&gt;.setter =&amp;gt;&amp;nbsp;&lt;b style=&quot;text-align: center;&quot;&gt;Borrower&lt;/b&gt;: setter&lt;/p&gt;" style="verticalAlign=top;align=left;overflow=fill;html=1;whiteSpace=wrap;direction=east;" parent="1" vertex="1">
          <mxGeometry x="820" y="590" width="190" height="180" as="geometry" />
        </mxCell>
        <mxCell id="BnSgCZiBQmyR9oTaGll6-18" style="edgeStyle=orthogonalEdgeStyle;rounded=0;orthogonalLoop=1;jettySize=auto;html=1;exitX=0.5;exitY=0;exitDx=0;exitDy=0;entryX=0.75;entryY=1;entryDx=0;entryDy=0;endArrow=block;endFill=0;" parent="1" source="BnSgCZiBQmyR9oTaGll6-17" target="BnSgCZiBQmyR9oTaGll6-15" edge="1">
          <mxGeometry relative="1" as="geometry" />
        </mxCell>
        <mxCell id="BnSgCZiBQmyR9oTaGll6-19" style="edgeStyle=orthogonalEdgeStyle;rounded=0;orthogonalLoop=1;jettySize=auto;html=1;exitX=0.5;exitY=0;exitDx=0;exitDy=0;entryX=0.25;entryY=1;entryDx=0;entryDy=0;endArrow=block;endFill=0;" parent="1" source="BnSgCZiBQmyR9oTaGll6-16" target="BnSgCZiBQmyR9oTaGll6-15" edge="1">
          <mxGeometry relative="1" as="geometry" />
        </mxCell>
        <mxCell id="BnSgCZiBQmyR9oTaGll6-20" value="&lt;p style=&quot;margin:0px;margin-top:4px;text-align:center;&quot;&gt;&lt;b&gt;BorrowedItem&lt;/b&gt;&lt;/p&gt;&lt;hr size=&quot;1&quot; style=&quot;border-style:solid;&quot;&gt;&lt;p style=&quot;margin:0px;margin-left:4px;&quot;&gt;- borrowerAN: string&lt;br&gt;&lt;/p&gt;&lt;p style=&quot;margin:0px;margin-left:4px;&quot;&gt;- itemName: string&lt;/p&gt;&lt;p style=&quot;margin:0px;margin-left:4px;&quot;&gt;- itemID: int&lt;/p&gt;&lt;p style=&quot;margin:0px;margin-left:4px;&quot;&gt;- borrowDate: string&lt;/p&gt;&lt;hr size=&quot;1&quot; style=&quot;border-style:solid;&quot;&gt;&lt;p style=&quot;margin:0px;margin-left:4px;&quot;&gt;- __init__(): constructor&lt;br&gt;+ @property =&amp;gt;&amp;nbsp;&lt;b style=&quot;text-align: center;&quot;&gt;User&lt;/b&gt;: getter&lt;/p&gt;&lt;p style=&quot;margin:0px;margin-left:4px;&quot;&gt;+ @&lt;b style=&quot;text-align: center;&quot;&gt;User&lt;/b&gt;.setter =&amp;gt;&amp;nbsp;&lt;b style=&quot;text-align: center;&quot;&gt;User&lt;/b&gt;: setter&lt;/p&gt;" style="verticalAlign=top;align=left;overflow=fill;html=1;whiteSpace=wrap;" parent="1" vertex="1">
          <mxGeometry x="1460" y="320" width="190" height="180" as="geometry" />
        </mxCell>
        <mxCell id="BnSgCZiBQmyR9oTaGll6-21" value="&lt;p style=&quot;margin:0px;margin-top:4px;text-align:center;&quot;&gt;&lt;b&gt;BorrowerList&lt;/b&gt;&lt;/p&gt;&lt;hr size=&quot;1&quot; style=&quot;border-style:solid;&quot;&gt;&lt;p style=&quot;margin:0px;margin-left:4px;&quot;&gt;- borrowers: DLL&amp;lt;Borrower&amp;gt;&lt;/p&gt;&lt;hr size=&quot;1&quot; style=&quot;border-style:solid;&quot;&gt;&lt;p style=&quot;margin:0px;margin-left:4px;&quot;&gt;- __init__(): constructor&lt;br&gt;+ @property =&amp;gt;&amp;nbsp;&lt;b style=&quot;text-align: center;&quot;&gt;BorrowerList&lt;/b&gt;: getter&lt;/p&gt;&lt;p style=&quot;margin:0px;margin-left:4px;&quot;&gt;+ @&lt;b style=&quot;text-align: center;&quot;&gt;BorrowerList&lt;/b&gt;.setter =&amp;gt;&amp;nbsp;&lt;b style=&quot;text-align: center;&quot;&gt;BorrowerList&lt;/b&gt;: setter&lt;/p&gt;" style="verticalAlign=top;align=left;overflow=fill;html=1;whiteSpace=wrap;" parent="1" vertex="1">
          <mxGeometry x="950" y="320" width="190" height="180" as="geometry" />
        </mxCell>
        <mxCell id="BnSgCZiBQmyR9oTaGll6-26" value="&lt;p style=&quot;margin:0px;margin-top:4px;text-align:center;&quot;&gt;&lt;b&gt;BorrowedItemsList&lt;/b&gt;&lt;/p&gt;&lt;hr size=&quot;1&quot; style=&quot;border-style:solid;&quot;&gt;&lt;p style=&quot;margin:0px;margin-left:4px;&quot;&gt;- bil: List&amp;lt;Borroweditem&amp;gt;&lt;/p&gt;&lt;hr size=&quot;1&quot; style=&quot;border-style:solid;&quot;&gt;&lt;p style=&quot;margin:0px;margin-left:4px;&quot;&gt;- __init__(): constructor&lt;br&gt;+ @property =&amp;gt;&amp;nbsp;&lt;b style=&quot;text-align: center;&quot;&gt;BorrowedItemsList&lt;/b&gt;&lt;/p&gt;&lt;div&gt;: getter&lt;/div&gt;&lt;p style=&quot;margin:0px;margin-left:4px;&quot;&gt;+ @&lt;b style=&quot;text-align: center;&quot;&gt;BorrowedItemsList&lt;/b&gt;&lt;/p&gt;&lt;div&gt;.setter =&amp;gt;&amp;nbsp;&lt;b style=&quot;text-align: center;&quot;&gt;BorrowedItemsList&lt;/b&gt;&lt;/div&gt;&lt;div&gt;: setter&lt;/div&gt;" style="verticalAlign=top;align=left;overflow=fill;html=1;whiteSpace=wrap;" parent="1" vertex="1">
          <mxGeometry x="1210" y="320" width="190" height="180" as="geometry" />
        </mxCell>
        <mxCell id="BnSgCZiBQmyR9oTaGll6-27" value="" style="endArrow=diamondThin;endFill=1;endSize=24;html=1;rounded=0;exitX=0;exitY=0.5;exitDx=0;exitDy=0;" parent="1" source="BnSgCZiBQmyR9oTaGll6-20" edge="1">
          <mxGeometry width="160" relative="1" as="geometry">
            <mxPoint x="1480" y="409.40999999999997" as="sourcePoint" />
            <mxPoint x="1400" y="409.40999999999997" as="targetPoint" />
          </mxGeometry>
        </mxCell>
        <mxCell id="BnSgCZiBQmyR9oTaGll6-32" value="&lt;p style=&quot;margin:0px;margin-top:4px;text-align:center;&quot;&gt;&lt;b&gt;System&lt;/b&gt;&lt;/p&gt;&lt;hr size=&quot;1&quot; style=&quot;border-style:solid;&quot;&gt;&lt;p style=&quot;margin:0px;margin-left:4px;&quot;&gt;- storage: &amp;lt;Storage&amp;gt;&lt;br&gt;&lt;/p&gt;&lt;p style=&quot;margin:0px;margin-left:4px;&quot;&gt;- admin: Admin(User)&lt;/p&gt;&lt;p style=&quot;margin:0px;margin-left:4px;&quot;&gt;- borrowerList: &amp;lt;BorrowerList&amp;gt;&lt;/p&gt;&lt;p style=&quot;margin:0px;margin-left:4px;&quot;&gt;- borrowedItemsList: &amp;lt;BorrowedItemsList&amp;gt;&lt;/p&gt;&lt;hr size=&quot;1&quot; style=&quot;border-style:solid;&quot;&gt;&lt;p style=&quot;margin:0px;margin-left:4px;&quot;&gt;- __init__(): constructor&lt;br&gt;+ @property =&amp;gt;&amp;nbsp;&lt;b style=&quot;text-align: center;&quot;&gt;System&lt;/b&gt;: getter&lt;/p&gt;&lt;p style=&quot;margin:0px;margin-left:4px;&quot;&gt;+ @&lt;b style=&quot;text-align: center;&quot;&gt;System&lt;/b&gt;.setter =&amp;gt;&amp;nbsp;&lt;b style=&quot;text-align: center;&quot;&gt;System&lt;/b&gt;: setter&lt;/p&gt;&lt;p style=&quot;margin:0px;margin-left:4px;&quot;&gt;+ menu(): string&lt;/p&gt;" style="verticalAlign=top;align=left;overflow=fill;html=1;whiteSpace=wrap;" parent="1" vertex="1">
          <mxGeometry x="820" y="10" width="190" height="200" as="geometry" />
        </mxCell>
        <mxCell id="BnSgCZiBQmyR9oTaGll6-38" value="" style="endArrow=diamondThin;endFill=1;endSize=24;html=1;rounded=0;entryX=0.142;entryY=1.014;entryDx=0;entryDy=0;entryPerimeter=0;exitX=0.5;exitY=0;exitDx=0;exitDy=0;" parent="1" source="BnSgCZiBQmyR9oTaGll6-12" target="BnSgCZiBQmyR9oTaGll6-32" edge="1">
          <mxGeometry width="160" relative="1" as="geometry">
            <mxPoint x="450" y="320" as="sourcePoint" />
            <mxPoint x="850" y="250" as="targetPoint" />
            <Array as="points">
              <mxPoint x="445" y="250" />
              <mxPoint x="847" y="250" />
            </Array>
          </mxGeometry>
        </mxCell>
        <mxCell id="BnSgCZiBQmyR9oTaGll6-39" value="" style="endArrow=diamondThin;endFill=1;endSize=24;html=1;rounded=0;entryX=0.347;entryY=0.998;entryDx=0;entryDy=0;entryPerimeter=0;exitX=0.5;exitY=0;exitDx=0;exitDy=0;" parent="1" source="BnSgCZiBQmyR9oTaGll6-15" target="BnSgCZiBQmyR9oTaGll6-32" edge="1">
          <mxGeometry width="160" relative="1" as="geometry">
            <mxPoint x="484" y="330" as="sourcePoint" />
            <mxPoint x="886" y="193" as="targetPoint" />
            <Array as="points">
              <mxPoint x="785" y="280" />
              <mxPoint x="886" y="280" />
            </Array>
          </mxGeometry>
        </mxCell>
        <mxCell id="BnSgCZiBQmyR9oTaGll6-40" value="" style="endArrow=diamondThin;endFill=1;endSize=24;html=1;rounded=0;entryX=0.579;entryY=1.008;entryDx=0;entryDy=0;entryPerimeter=0;exitX=0.5;exitY=0;exitDx=0;exitDy=0;" parent="1" source="BnSgCZiBQmyR9oTaGll6-21" target="BnSgCZiBQmyR9oTaGll6-32" edge="1">
          <mxGeometry width="160" relative="1" as="geometry">
            <mxPoint x="830" y="317" as="sourcePoint" />
            <mxPoint x="931" y="190" as="targetPoint" />
            <Array as="points">
              <mxPoint x="1045" y="280" />
              <mxPoint x="931" y="280" />
            </Array>
          </mxGeometry>
        </mxCell>
        <mxCell id="BnSgCZiBQmyR9oTaGll6-41" value="" style="endArrow=diamondThin;endFill=1;endSize=24;html=1;rounded=0;entryX=0.787;entryY=1.01;entryDx=0;entryDy=0;entryPerimeter=0;exitX=0.5;exitY=0;exitDx=0;exitDy=0;" parent="1" source="BnSgCZiBQmyR9oTaGll6-26" target="BnSgCZiBQmyR9oTaGll6-32" edge="1">
          <mxGeometry width="160" relative="1" as="geometry">
            <mxPoint x="1084" y="320" as="sourcePoint" />
            <mxPoint x="970" y="190" as="targetPoint" />
            <Array as="points">
              <mxPoint x="1305" y="250" />
              <mxPoint x="970" y="250" />
            </Array>
          </mxGeometry>
        </mxCell>
        <mxCell id="BnSgCZiBQmyR9oTaGll6-42" value="" style="endArrow=diamondThin;endFill=1;endSize=24;html=1;rounded=0;entryX=0.5;entryY=1;entryDx=0;entryDy=0;exitX=0.75;exitY=0;exitDx=0;exitDy=0;" parent="1" source="BnSgCZiBQmyR9oTaGll6-17" target="BnSgCZiBQmyR9oTaGll6-21" edge="1">
          <mxGeometry width="160" relative="1" as="geometry">
            <mxPoint x="880" y="530" as="sourcePoint" />
            <mxPoint x="1040" y="530" as="targetPoint" />
            <Array as="points">
              <mxPoint x="963" y="550" />
              <mxPoint x="1045" y="550" />
            </Array>
          </mxGeometry>
        </mxCell>
        <mxCell id="BnSgCZiBQmyR9oTaGll6-43" value="" style="endArrow=diamondThin;endFill=0;endSize=24;html=1;rounded=0;entryX=0.25;entryY=0;entryDx=0;entryDy=0;exitX=0.75;exitY=1;exitDx=0;exitDy=0;" parent="1" source="BnSgCZiBQmyR9oTaGll6-12" target="BnSgCZiBQmyR9oTaGll6-16" edge="1">
          <mxGeometry width="160" relative="1" as="geometry">
            <mxPoint x="470" y="550" as="sourcePoint" />
            <mxPoint x="630" y="550" as="targetPoint" />
            <Array as="points">
              <mxPoint x="493" y="540" />
              <mxPoint x="638" y="540" />
            </Array>
          </mxGeometry>
        </mxCell>
        <mxCell id="BnSgCZiBQmyR9oTaGll6-44" value="" style="endArrow=diamondThin;endFill=0;endSize=24;html=1;rounded=0;entryX=0.75;entryY=1;entryDx=0;entryDy=0;exitX=0.75;exitY=1;exitDx=0;exitDy=0;" parent="1" edge="1">
          <mxGeometry width="160" relative="1" as="geometry">
            <mxPoint x="1090" y="500" as="sourcePoint" />
            <mxPoint x="730" y="770" as="targetPoint" />
            <Array as="points">
              <mxPoint x="1090.5" y="820" />
              <mxPoint x="730.5" y="820" />
            </Array>
          </mxGeometry>
        </mxCell>
        <mxCell id="BnSgCZiBQmyR9oTaGll6-45" value="" style="endArrow=none;html=1;rounded=0;" parent="1" edge="1">
          <mxGeometry width="50" height="50" relative="1" as="geometry">
            <mxPoint x="1090" y="560" as="sourcePoint" />
            <mxPoint x="1300" y="500" as="targetPoint" />
            <Array as="points">
              <mxPoint x="1300" y="560" />
            </Array>
          </mxGeometry>
        </mxCell>
      </root>
    </mxGraphModel>
  </diagram>
</mxfile>
